<svg id="Layer_1" data-name="Layer 1" xmlns="http://www.w3.org/2000/svg" xmlns:xlink="http://www.w3.org/1999/xlink" viewBox="0 0 86.6 100"><defs><style>.cls-1{fill:url(#linear-gradient);}.cls-2{fill:url(#linear-gradient-2);}.cls-3{fill:#8c65f7;}.cls-17,.cls-4{fill:#fff;}.cls-5{fill:#5932c4;}.cls-6{fill:#02e2ac;}.cls-7{fill:#5bf1cd;}.cls-8{fill:#f579a6;}.cls-9{fill:#6f3ff5;}.cls-10{fill:#cafff0;}.cls-11{fill:#14bd92;}.cls-12{fill:#5cf2cd;}.cls-13{fill:url(#linear-gradient-3);}.cls-14{fill:url(#linear-gradient-4);}.cls-15{fill:#fafafa;}.cls-16{fill:#d268cc;}.cls-17{opacity:0.8;isolation:isolate;}.cls-18,.cls-22{fill:#15003e;}.cls-19{fill:#0fce7c;}.cls-20{fill:#eff4ee;}.cls-21{fill:none;}.cls-22{fill-rule:evenodd;}</style><linearGradient id="linear-gradient" x1="6.7" y1="1028" x2="93.3" y2="1028" gradientTransform="translate(-6.7 -978)" gradientUnits="userSpaceOnUse"><stop offset="0" stop-color="#8d60f7"/><stop offset="1" stop-color="#f578a6"/></linearGradient><linearGradient id="linear-gradient-2" x1="9.06" y1="1027.6" x2="80.94" y2="1027.6" gradientTransform="translate(5 -978)" gradientUnits="userSpaceOnUse"><stop offset="0" stop-color="#5932c4"/><stop offset="0.04" stop-color="#5932c4"/><stop offset="1" stop-color="#02e2ac"/></linearGradient><linearGradient id="linear-gradient-3" x1="72.15" y1="80.58" x2="76.05" y2="80.58" gradientUnits="userSpaceOnUse"><stop offset="0" stop-color="#03e0ac"/><stop offset="0.51" stop-color="#f578a6"/><stop offset="1" stop-color="#5932c4"/><stop offset="1" stop-color="#f076a7"/><stop offset="1" stop-color="#fff"/></linearGradient><linearGradient id="linear-gradient-4" x1="34.3" y1="28.22" x2="55.69" y2="28.22" gradientUnits="userSpaceOnUse"><stop offset="0" stop-color="#03e0ac"/><stop offset="1" stop-color="#5932c4"/><stop offset="1" stop-color="#f076a7"/><stop offset="1" stop-color="#fff"/></linearGradient></defs><g id="a41bad43-608e-44b4-ad62-f28aac99475d"><polygon class="cls-1" points="86.6 25 86.6 75 43.3 100 8.7 80 8.5 79.9 0 75 0 25 43.3 0 86.6 25"/></g><path class="cls-2" d="M50.1,7.7,14.1,29V70.5L50,91.5l35.9-21V28.4Zm34.6,62L50.2,89.8,15.7,69.7V29.8L50.2,9.4,84.7,29.3Z" transform="translate(-6.7)"/><g id="eydlib7ehv144"><g id="eydlib7ehv145"><path id="eydlib7ehv146" class="cls-3" d="M53.9,45.3c.6.3.7.3.8.5s.1.3,0,.7a3.3,3.3,0,0,1-.3,1,5.7,5.7,0,0,1-.6.9c0,.1-.1.1-.2.1h-.2l-.7-.2H50.5c-.1-.1-.2-.2-.2-.3s.1-.5.1-.7a1.7,1.7,0,0,1,.1-.7.9.9,0,0,0,.1-.5,5.6,5.6,0,0,1,.4-1.2c0-.1,0-.1.1-.1h.6l.7.2h.1a.1.1,0,0,1,.1-.1h.3Z" transform="translate(-6.7)"/><g id="eydlib7ehv147"><path id="eydlib7ehv148" class="cls-4" d="M54.3,47.4c-.3.6-.8.7-.7,1s.7.4,1.9.9,1.6,1.1,2.2.9l.6-.2,1-.5c.4-.3.4-.6,1.1-1.9a5.5,5.5,0,0,1,.9-1.4,8.1,8.1,0,0,1,.8-1.2,11.6,11.6,0,0,0,.4,1.8,29.9,29.9,0,0,1,.4,4.1v1.2c0,1.1.1,1.6.1,2.3s-.1.7-.2,1.8c-.3,2.7-.4,2.7-.5,3.7s.3,1.8.1,3.5a9.9,9.9,0,0,0-.1,3.5c.1.2.1.4.2.5l1.1-.2h1c.4.1.6.3.8.2s.2-.6.2-.8.2-2.1.8-4.4c.1-.3.4-1.3.9-2.5a14.2,14.2,0,0,1,1.3-2.5H69c.5,0,.8,3.5.9,5.2a15.5,15.5,0,0,1,.1,2.2,8.2,8.2,0,0,0,.1,1.4c.1.5.1.6.2.7s1.4.1,2,.1l.4-.2.2-.3a18.9,18.9,0,0,0,.6-4.4c.1-.6.6-1.6.7-2.3a14.8,14.8,0,0,0,.1-2.1c.1-1.2.1-2.7.2-4.7s-.2-2.5-.2-5.2.5-2.7.5-3.6l.8.4c-.4.6-.5.5-.8,1a4.5,4.5,0,0,0-.3,1.1c.1.2.2.1.4.3a2.7,2.7,0,0,1,.9,2l1.7-1.7c.9-1.1,1-1.6,1-1.8a3.4,3.4,0,0,0-.2-1.6,4.9,4.9,0,0,0-1.4-1.8l-2.8-2.2-.4-.4a3,3,0,0,1-.2-2.1,12.8,12.8,0,0,0-.2-3,4.5,4.5,0,0,0-1-2.1c-1.6-1.7-5.1-1.2-6.4-.1a9.3,9.3,0,0,0-1.5,1.5l-.5.7a6.2,6.2,0,0,0-.6,3.9c.1.2.2.5,0,.7s-.7.4-1.1.4-.5.1-.7.3-.1.5-.2.5l-.7.4c-.9,2-2.2,3.7-3.2,5.6l-.3.4c-.7.5-1.6-1-2.4-.6A3.1,3.1,0,0,1,54.3,47.4Z" transform="translate(-6.7)"/><path id="eydlib7ehv149" class="cls-5" d="M67.6,44.8a2.2,2.2,0,1,1,2.2,2.3A2.2,2.2,0,0,1,67.6,44.8Zm.2,0a2,2,0,0,0,2,2.1,2.1,2.1,0,0,0,2-2.1,2,2,0,1,0-4,0Z" transform="translate(-6.7)"/><path id="eydlib7ehv150" class="cls-6" d="M62.2,44.8l.4,3.2.3,3.5-.8-.3a1.1,1.1,0,0,1-.6-.7L61,46.9Z" transform="translate(-6.7)"/><path id="eydlib7ehv151" class="cls-3" d="M75.2,46.8a1.5,1.5,0,0,1,.6,1.1,1.1,1.1,0,0,1-.1.8c-.9.9-1.2,1-1.3.9s0-.3,0-1a9.2,9.2,0,0,0-.1-1.6c0-.1-.1-.5.1-.5h.1C74.8,46.4,75.1,46.7,75.2,46.8Z" transform="translate(-6.7)"/><path id="eydlib7ehv152" class="cls-5" d="M62,51.3a1,1,0,0,1-.7-.9l-.5-3.5H61l.5,3.5a1.1,1.1,0,0,0,.6.7l1,.4v.2Z" transform="translate(-6.7)"/><path id="eydlib7ehv153" class="cls-7" d="M59.3,49.5l-.4.2-.4-.2v.4l-.4.3a.3.3,0,0,0-.1.2v.3h.2l1.3-.7a.3.3,0,0,0,.1-.2v-.2c0-.2-.1-.3-.2-.2Z" transform="translate(-6.7)"/><path id="eydlib7ehv154" class="cls-7" d="M78.9,43.4h-.2a.1.1,0,0,0-.1.1V44l-.3.2.3.2v.4a.1.1,0,0,0,.1.1H79c.1,0,.1,0,.1-.1h0V43.6a.3.3,0,0,0-.1-.2Z" transform="translate(-6.7)"/><path id="eydlib7ehv155" class="cls-8" d="M66.1,43.9a.1.1,0,0,1-.1.1v1.9c0,.1,0,.1.1.1a.1.1,0,0,1,.1.1h.5a.2.2,0,0,0,.2-.2V44a.2.2,0,0,0-.2-.2h-.5A.1.1,0,0,1,66.1,43.9Z" transform="translate(-6.7)"/><path id="eydlib7ehv156" class="cls-8" d="M65.7,43.8h-.5c0,.1-.1.1-.1.2v1.9a.3.3,0,0,0,.1.2h.5c0-.1.1-.1.1-.2V44A.3.3,0,0,0,65.7,43.8Z" transform="translate(-6.7)"/><path id="eydlib7ehv157" class="cls-5" d="M58.1,51a.2.2,0,0,1-.2-.2l-.2-.3a.4.4,0,0,1,.1-.5l.4-.2v-.6l.5.3.4-.2a.4.4,0,0,1,.5.2v.2a.4.4,0,0,1-.2.5l-1.3.7s0,.1-.2.1Zm1.2-1.5-.4.2-.4-.2v.4l-.4.3a.3.3,0,0,0-.1.2v.3h.2l1.3-.7a.3.3,0,0,0,.1-.2v-.2c0-.2-.1-.3-.2-.2Z" transform="translate(-6.7)"/><path id="eydlib7ehv158" class="cls-5" d="M78.4,44.8v-.3l-.3-.3.4-.3v-.3a.3.3,0,0,1,.3-.3h.2a.3.3,0,0,1,.3.3v1.1c0,.1,0,.2-.1.2s-.1.1-.2.1h-.3C78.5,45.1,78.4,45,78.4,44.8Zm.5-1.4h-.2a.1.1,0,0,0-.1.1V44l-.3.2.3.2v.4a.1.1,0,0,0,.1.1H79c.1,0,.1,0,.1-.1h0V43.6a.3.3,0,0,0-.1-.2Z" transform="translate(-6.7)"/><path id="eydlib7ehv159" class="cls-5" d="M66,46.2a.4.4,0,0,1-.1-.3V44c0-.1.1-.2.1-.3h.8a.4.4,0,0,1,.4.4v1.9a.4.4,0,0,1-.4.4H66Zm.1-2.3a.1.1,0,0,1-.1.1v1.9c0,.1,0,.1.1.1a.1.1,0,0,1,.1.1h.5a.2.2,0,0,0,.2-.2V44a.2.2,0,0,0-.2-.2h-.5A.1.1,0,0,1,66.1,43.9Z" transform="translate(-6.7)"/><path id="eydlib7ehv160" class="cls-5" d="M65.3,46.2c-.2,0-.3-.2-.3-.4V43.9c0-.1.1-.2.1-.3h.6c.2,0,.3.2.3.4v1.9c0,.1-.1.2-.1.3h-.6Zm.4-2.4h-.5c0,.1-.1.1-.1.2v1.9a.3.3,0,0,0,.1.2h.5c0-.1.1-.1.1-.2V44A.3.3,0,0,0,65.7,43.8Z" transform="translate(-6.7)"/><path id="eydlib7ehv161" class="cls-5" d="M73.3,61.2a4.5,4.5,0,0,0,.8-2.5l.4-6.2h.2l-.4,6.2a4.6,4.6,0,0,1-.8,2.6Z" transform="translate(-6.7)"/><path id="eydlib7ehv162" class="cls-5" d="M70,66.2l-.2-4.3H70l.2,4.3v.2h2.3l.2-.2.7-5h.2L73,66.2l-.2.4H70.3Z" transform="translate(-6.7)"/><path id="eydlib7ehv163" class="cls-5" d="M66.3,61.3h.4a19.7,19.7,0,0,1,2.8-5.5h.2a19.7,19.7,0,0,0-2.8,5.5h-.5Z" transform="translate(-6.7)"/><path id="eydlib7ehv164" class="cls-5" d="M65.6,67.3a28.3,28.3,0,0,1,1-6h.2a29.9,29.9,0,0,0-1,6Z" transform="translate(-6.7)"/><path id="eydlib7ehv165" class="cls-5" d="M62.3,66.8h0a45.7,45.7,0,0,1,.3-6.1h.2a43.3,43.3,0,0,0-.3,6l.3.4h-.2Z" transform="translate(-6.7)"/><path id="eydlib7ehv166" class="cls-5" d="M62.4,60.5h0a59.5,59.5,0,0,1,.7-6.7h.2a59.4,59.4,0,0,0-.7,6.6l.4.4-.2.2Z" transform="translate(-6.7)"/><path id="eydlib7ehv167" class="cls-5" d="M74.2,46.3v4.3h.2V46.3Z" transform="translate(-6.7)"/><path id="eydlib7ehv168" class="cls-5" d="M62.7,49l.3,3.2h.2L62.9,49Z" transform="translate(-6.7)"/><path id="eydlib7ehv169" class="cls-5" d="M59.4,49.4,62,44.9h.2a.2.2,0,0,1,.2.2l.4,3h-.2l-.4-3.1h0l-2.6,4.5Z" transform="translate(-6.7)"/><path id="eydlib7ehv170" class="cls-5" d="M66,40.9a6.3,6.3,0,0,1-2.6-2.1h0v-.9h.2v.8a5.4,5.4,0,0,0,2.5,2c5.8,1.9,7.3-1.8,7.4-1.9s1.3-7-2.7-7.9a5.7,5.7,0,0,0-6,2.1h-.2a5.8,5.8,0,0,1,6.1-2.1c4.2.9,2.9,8.1,2.9,8.2A4.9,4.9,0,0,1,69,41.6Z" transform="translate(-6.7)"/><path id="eydlib7ehv171" class="cls-5" d="M68.1,40.3H68c-1.6-.2-3.7-.6-4.9-2.6,0-.1-.7-1,.4-3.7.1-.4.4-.5.8-.5h.2s1.2,1.6,5,1.6h.1s.2,0,.5.3a2.9,2.9,0,0,1,.2,2.2,4.3,4.3,0,0,1-.1.5c-.3,1.6-.4,2.2-1.4,2.2Zm1.3-5.1c-3.6,0-4.9-1.4-5.1-1.6h-.1a.7.7,0,0,0-.6.4c-1,2.6-.4,3.5-.4,3.5,1.2,1.9,3.3,2.3,4.8,2.5h.1c1.4.2,1.4-.1,1.8-2a.7.7,0,0,1,.1-.5c.2-1.3,0-1.8-.2-2a.5.5,0,0,0-.4-.3Z" transform="translate(-6.7)"/><path id="eydlib7ehv172" class="cls-5" d="M69.2,40.9a7.2,7.2,0,0,1-5.8-2.3h.1a7.2,7.2,0,0,0,5.7,2.3h0c.9,0,1.3-.8,1.6-3.7a3.1,3.1,0,0,0-.1-2.1c-.2-.3-.8-.4-1.6-.4h-.9A7.1,7.1,0,0,1,64.6,33h-.1c0,.1,0,.3.1.3h-.2a2,2,0,0,1-.1-.5c0-.1.1-.2.3-.2h.2a6.2,6.2,0,0,0,3.5,1.4h.9c.9.1,1.4.1,1.7.5s.3.9.2,2.2-.8,3.8-1.9,3.8Z" transform="translate(-6.7)"/><path id="eydlib7ehv173" class="cls-6" d="M62,39.1l-.6.2c-.1,0-.1.1-.1.2s0,.2.1.2A6.1,6.1,0,0,1,64,45.1c0,.1-.3,2.3-1.2,2.8s-.2.2-.2.3v.4a.3.3,0,0,0,.1.2H63a4.7,4.7,0,0,0,1.9-4.2,8.1,8.1,0,0,0-2.7-5.5H62C62.1,39.1,62.1,39.1,62,39.1Z" transform="translate(-6.7)"/><path id="eydlib7ehv174" class="cls-5" d="M62.8,49c-.2-.1-.2-.2-.2-.4v-.4c0-.2.1-.3.3-.4S64,45.1,64,45.1a6,6,0,0,0-2.5-5.2.5.5,0,0,1,0-.8l.6-.2c.2-.1.4-.1.5.1a8.1,8.1,0,0,1,2.7,5.6,5.3,5.3,0,0,1-2,4.4H63C62.8,49.1,62.8,49.1,62.8,49ZM62,39.1l-.6.2c-.1,0-.1.1-.1.2s0,.2.1.2A6.1,6.1,0,0,1,64,45.1c0,.1-.3,2.3-1.2,2.8s-.2.2-.2.3v.4a.3.3,0,0,0,.1.2H63a4.7,4.7,0,0,0,1.9-4.2,8.1,8.1,0,0,0-2.7-5.5H62C62.1,39.1,62.1,39.1,62,39.1Z" transform="translate(-6.7)"/><path id="eydlib7ehv175" class="cls-5" d="M56.9,46.4l3.7-6.3.6-.4v.2l-.5.4-3.7,6.3Z" transform="translate(-6.7)"/><path id="eydlib7ehv176" class="cls-5" d="M52.3,48.2l1.2.3v-.2L52.3,48Z" transform="translate(-6.7)"/><path id="eydlib7ehv177" class="cls-5" d="M52.4,46.6l-.4-.2c-.1-.1-.2-.2-.2-.3a.8.8,0,0,1,.1-.4l.5-.8a.5.5,0,0,1,.6-.2l1.8.8v.2l-1.8-.8a.2.2,0,0,0-.3.1l-.6.8c0,.1-.1.1,0,.2s.1.1.1.2l.4.2c.1.1.1.1.2,0h.2l.2-.4h.2l-.2.4-.3.2h-.4Z" transform="translate(-6.7)"/><path id="eydlib7ehv178" class="cls-5" d="M52,48.3l-1.4-.2-.3-.2c-.1-.1-.1-.2-.1-.4l.6-2.9.2-.3h.4l1.1.5V45l-1.1-.5c-.1-.1-.2-.1-.2,0s-.1.1-.1.2l-.6,2.9c0,.1,0,.2.1.2s.1.1.2.1l1.3.2c.1,0,.3-.1.3-.2l.2-1.4h.2L52.5,48a.5.5,0,0,1-.5.3Z" transform="translate(-6.7)"/><path id="eydlib7ehv179" class="cls-5" d="M53.7,48.7a.2.2,0,0,1-.2-.2.4.4,0,0,1,.1-.3,2.8,2.8,0,0,0,.9-2.5c0-.1.1-.2.1-.3a.2.2,0,0,1,.3,0l2.5,1.2v.2l-2.5-1.2h-.2a3.1,3.1,0,0,1-1,2.6.1.1,0,0,0,0,.2l4.2,1.8v.2Z" transform="translate(-6.7)"/><path id="eydlib7ehv180" class="cls-6" d="M73,39.7c1.6,1.7,1.4,5.7,1.3,6.5h.2c.8-4.4-.6-6.9-.8-7.2h-.2Z" transform="translate(-6.7)"/><path id="eydlib7ehv181" class="cls-5" d="M74.1,46.3c0-.1.4-4.8-1.3-6.5h.1c1.6,1.7,1.4,5.7,1.3,6.5h.2c.8-4.4-.6-6.9-.8-7.2h-.2v-.2h.3s1.8,2.7.8,7.5h0l-.6.2v-.2Z" transform="translate(-6.7)"/><path id="eydlib7ehv182" class="cls-5" d="M74.2,39.7v-.2a13.4,13.4,0,0,1,4.5,3.9h-.2A12.6,12.6,0,0,0,74.2,39.7Z" transform="translate(-6.7)"/><path id="eydlib7ehv183" class="cls-5" d="M75.6,48.6a1.8,1.8,0,0,0-1.3-2.2v-.2a2.1,2.1,0,0,1,1.5,2.1,12,12,0,0,0,2.8-3.4h.2a11.3,11.3,0,0,1-3,3.7l-.2.2Z" transform="translate(-6.7)"/><path id="eydlib7ehv184" class="cls-5" d="M74.8,45.1h.1l1.3-1.4H76Z" transform="translate(-6.7)"/><path id="eydlib7ehv185" class="cls-5" d="M74.8,43.9l.8.4v-.2l-.8-.4Z" transform="translate(-6.7)"/><path id="eydlib7ehv186" class="cls-5" d="M74.3,49.5v.2l1.3-1v-.2Z" transform="translate(-6.7)"/><path id="eydlib7ehv187" class="cls-9" d="M63,67h0a5,5,0,0,1,2.1-.1h.2l.3.2.3.2.2.3c.1.2.1.4.2.6s.1.3.1.5a.7.7,0,0,1-.1.5H61.7a9.4,9.4,0,0,1,.4-1.6l.2-.3c.4-.2.6-.2.7-.5Z" transform="translate(-6.7)"/><path id="eydlib7ehv188" class="cls-3" d="M65.1,67h-.9a.8.8,0,0,0-.8.1h-.1a1,1,0,0,0,.5.6h.8l.4-.2C65.2,67.5,65.4,67,65.1,67Z" transform="translate(-6.7)"/><path id="eydlib7ehv189" class="cls-5" d="M61.7,69.5a2.7,2.7,0,0,1,.7-2,2.1,2.1,0,0,1,1.6-.6,3.2,3.2,0,0,1,2,.5,2.7,2.7,0,0,1,.6,2H61.7Zm4.2-2A2.6,2.6,0,0,0,64,67a1.7,1.7,0,0,0-1.4.6,2.9,2.9,0,0,0-.6,1.7h4.4A3.5,3.5,0,0,0,65.9,67.5Z" transform="translate(-6.7)"/><path id="eydlib7ehv190" class="cls-5" d="M61.9,69h4.5v-.2H61.9Z" transform="translate(-6.7)"/><path id="eydlib7ehv191" class="cls-5" d="M63.3,67.6l-.2-.5h.2l.2.5h1.4l.2-.2.2-.5h.2l-.2.5c-.1.2-.2.3-.4.3H63.7A.5.5,0,0,1,63.3,67.6Z" transform="translate(-6.7)"/><path id="eydlib7ehv192" class="cls-5" d="M69.6,61.9h0c0-.1.3-3.4-.7-5h.2c1,1.6.8,4.6.8,5l.5.3v.2Z" transform="translate(-6.7)"/><path id="eydlib7ehv193" class="cls-5" d="M62.3,38.9v.2l1-.3v-.2Z" transform="translate(-6.7)"/><path id="eydlib7ehv194" class="cls-5" d="M67,44.4v-.2h.8v.2Z" transform="translate(-6.7)"/><path id="eydlib7ehv195" class="cls-5" d="M71.7,43.9a12.3,12.3,0,0,0,2.5-.7v.2a10,10,0,0,1-2.5.7Z" transform="translate(-6.7)"/><path id="eydlib7ehv196" class="cls-5" d="M67,45.6v-.2h.9v.2Z" transform="translate(-6.7)"/><path id="eydlib7ehv197" class="cls-5" d="M71.9,45.1a10,10,0,0,0,2.3-.7v.2a10,10,0,0,1-2.3.7Z" transform="translate(-6.7)"/><path id="eydlib7ehv198" class="cls-10" d="M62.7,53c0-.4,0-.7.2-.8s.5-.1.8-.1h1.7a29.5,29.5,0,0,0,5.2-.5l2.5-.5.8-.2c.4-.2.7-.3.9-.2s.1.1.2.2.1.3,0,1.1a.8.8,0,0,1-.1.4c-.1.2-.2.2-.3.2a5.4,5.4,0,0,1-1.8.4c-.7,0-.1.1-2.3.4,0,0-2.5.3-5.6.4h-1a.8.8,0,0,1-.5,0H63C62.7,53.7,62.7,53.4,62.7,53Z" transform="translate(-6.7)"/><path id="eydlib7ehv199" class="cls-7" d="M65.4,51.3a.4.4,0,0,0-.4.4V54c0,.1.1.2.1.3h1.5A.4.4,0,0,0,67,54V51.7c0-.1-.1-.2-.1-.3s-.2-.1-.3-.1Z" transform="translate(-6.7)"/><path id="eydlib7ehv1100" class="cls-5" d="M65,54.5a.5.5,0,0,1-.2-.4V51.8a.7.7,0,0,1,.6-.7h1.2a.7.7,0,0,1,.6.6V54a.7.7,0,0,1-.6.7H65.4C65.2,54.7,65.1,54.7,65,54.5Zm.4-3.2a.4.4,0,0,0-.4.4V54c0,.1.1.2.1.3h1.5A.4.4,0,0,0,67,54V51.7c0-.1-.1-.2-.1-.3H65.4Z" transform="translate(-6.7)"/><path id="eydlib7ehv1101" class="cls-7" d="M72.8,50.4h-.4a.2.2,0,0,0-.2.2v3c0,.1,0,.1.1.1h.7v-3c0-.1,0-.1-.1-.1Z" transform="translate(-6.7)"/><path id="eydlib7ehv1102" class="cls-5" d="M72.2,53.8a.3.3,0,0,1-.1-.2v-3c0-.2.1-.4.3-.4h.6a.3.3,0,0,0,.1.2v3c0,.1,0,.2-.1.2h-.6C72.4,53.9,72.3,53.8,72.2,53.8Zm.6-3.4h-.4a.2.2,0,0,0-.2.2v3c0,.1,0,.1.1.1h.7v-3c0-.1,0-.1-.1-.1Z" transform="translate(-6.7)"/><path id="eydlib7ehv1103" class="cls-5" d="M73,52.9l1.3-.3a.7.7,0,0,0,.4-.6V51c0-.1-.1-.1-.1-.2h-.2l-1.4.4V51l1.4-.4h.4a.5.5,0,0,1,.2.4v1a.8.8,0,0,1-.6.8l-1.3.3Z" transform="translate(-6.7)"/><path id="eydlib7ehv1104" class="cls-5" d="M67,51.9a33.1,33.1,0,0,0,5.1-.7v.2a34.5,34.5,0,0,1-5.2.7Z" transform="translate(-6.7)"/><path id="eydlib7ehv1105" class="cls-5" d="M62.8,53.8a.4.4,0,0,1-.1-.3v-1c0-.1.1-.2.1-.3h2.1v.2h-2c0,.1-.1.1-.1.2v1c0,.1,0,.1.1.2H65V54H63.1C62.9,53.9,62.8,53.9,62.8,53.8Z" transform="translate(-6.7)"/><path id="eydlib7ehv1106" class="cls-5" d="M67.1,53.6l5.1-.5v.2l-5.1.5Z" transform="translate(-6.7)"/><path id="eydlib7ehv1107" class="cls-5" d="M73.9,52.7h.2V50.8h-.2Z" transform="translate(-6.7)"/><path id="eydlib7ehv1108" class="cls-5" d="M71.1,53.3h.2V51.5h-.2Z" transform="translate(-6.7)"/><path id="eydlib7ehv1109" class="cls-5" d="M69.3,53.5h.2V51.7h-.2Z" transform="translate(-6.7)"/><path id="eydlib7ehv1110" class="cls-5" d="M67.7,53.7h.2V52h-.2Z" transform="translate(-6.7)"/><path id="eydlib7ehv1111" class="cls-5" d="M63.8,53.8H64V52.1h-.2Z" transform="translate(-6.7)"/><path id="eydlib7ehv1112" class="cls-9" d="M72.2,66.5h1.9c.5.1,1.1,0,1.4.4l.4.4a1.2,1.2,0,0,1,.4.8V69H70.2V67.6c0-.3-.1-.5-.1-.8h2.1Z" transform="translate(-6.7)"/><path id="eydlib7ehv1113" class="cls-3" d="M72.2,66.4a.9.9,0,0,1,.7.1,6.5,6.5,0,0,1,2,.4h0a.7.7,0,0,1-.5.4H72.7l-.4-.3S72.1,66.5,72.2,66.4Z" transform="translate(-6.7)"/><path id="eydlib7ehv1114" class="cls-5" d="M70,66.8l.2-.3h.2l-.2.3V69h6a2.3,2.3,0,0,0-.3-1.5,1.4,1.4,0,0,0-1.1-.7l-2.4-.4h.5l1.9.3a1.9,1.9,0,0,1,1.3.7,2.8,2.8,0,0,1,.4,1.7H70V66.8Z" transform="translate(-6.7)"/><path id="eydlib7ehv1115" class="cls-5" d="M70.1,68.5h6.1v-.2H70.1Z" transform="translate(-6.7)"/><path id="eydlib7ehv1116" class="cls-5" d="M74.3,67.4l-1.4-.2a.8.8,0,0,1-.7-.5l-.2-.4h.2v.3a.7.7,0,0,0,.5.4l1.4.2a.4.4,0,0,0,.5-.2l.3-.3h.2l-.2.4-.6.3Z" transform="translate(-6.7)"/><path id="eydlib7ehv1117" class="cls-5" d="M64.5,61.1l-.8-.2h.9l.8.2Z" transform="translate(-6.7)"/><path id="eydlib7ehv1118" class="cls-5" d="M72.7,61.2h-.6l.5-.2c.2,0,.4-.1.6,0Z" transform="translate(-6.7)"/><path id="eydlib7ehv1119" class="cls-5" d="M62.9,36.2l.2,1.5.8.9,1.1.8,1.5.5,1.6.3H69l.5-.3.5-3s.1-1.6-.6-1.7-3.9-.1-5.1-1.6H64l-.4.4-.5,1.5Zm.7-.8c.2-.7.6-1.1.9-1.1s.4.7.2,1.4-.6,1.1-.9,1.1S63.4,36.1,63.6,35.4Z" transform="translate(-6.7)"/></g></g></g><g id="eydlib7ehv144-2" data-name="eydlib7ehv144"><g id="eydlib7ehv145-2" data-name="eydlib7ehv145"><path id="eydlib7ehv146-2" data-name="eydlib7ehv146" class="cls-3" d="M47.2,44.8h.5l.7-.2H49a.1.1,0,0,1,.1.1l.4,1.2a.9.9,0,0,1,.1.5c.1.2,0,.5.1.7a.8.8,0,0,1,.1.7c0,.1-.1.2-.2.3H48.5c-.1,0-.3.1-.4,0h-.7l-.7.2h-.4a3,3,0,0,1-.6-.9,9.3,9.3,0,0,1-.3-1c-.1-.4-.1-.5,0-.7s.2-.2.8-.5A3.1,3.1,0,0,1,47.2,44.8Z" transform="translate(-6.7)"/><g id="eydlib7ehv147-2" data-name="eydlib7ehv147"><path id="eydlib7ehv148-2" data-name="eydlib7ehv148" class="cls-4" d="M45.4,45.5c-.8-.4-1.7,1.1-2.4.6s-.2-.3-.3-.4c-1-1.9-2.3-3.7-3.2-5.6-.1-.1-.5-.1-.7-.4s0-.4-.2-.5l-.7-.3c-.5,0-.9,0-1.1-.4s0-.5,0-.7a5.6,5.6,0,0,0-.6-3.9l-.5-.7a9.3,9.3,0,0,0-1.5-1.5c-1.4-1.1-4.8-1.6-6.4.1a4,4,0,0,0-1,2.1,8.7,8.7,0,0,0-.2,3,3,3,0,0,1-.2,2.1c-.1.2-.3.3-.4.4s-2.3,1.7-2.8,2.2a3.4,3.4,0,0,0-1.4,1.8,3,3,0,0,0-.2,1.6,6.8,6.8,0,0,0,1,1.8c.4.4,1,1.1,1.7,1.7a2.2,2.2,0,0,1,.9-2c.2-.1.3-.1.4-.3a3.5,3.5,0,0,0-.3-1.1c-.2-.5-.4-.4-.8-1l.8-.4c0,.9.5,2,.5,3.6s-.2,3.1-.2,5.2.1,3.5.2,4.7a15.5,15.5,0,0,0,.1,2.1,20.2,20.2,0,0,0,.7,2.3,18.9,18.9,0,0,0,.6,4.4l.2.3.4.2c.7,0,1.7.2,2-.1s.1-.2.2-.7a8.2,8.2,0,0,0,.1-1.4c0-.7.1-1.4.1-2.2s.4-5.2.9-5.2.1,0,.2.2a19.1,19.1,0,0,1,1.3,2.5c.5,1.2.8,2.2.9,2.5.6,2.3.9,3.5.8,4.4s-.1.7.2.8.4-.2.8-.2.5,0,1,.1l1.1.2c.1-.1.1-.3.2-.5a6.8,6.8,0,0,0-.1-3.5c-.2-1.6.2-1.3.1-3.5s-.2-1.1-.5-3.7a16.2,16.2,0,0,1-.1-1.8c0-.8.1-1.2.1-2.3V50.9c.1-1.3.2-2.6.4-4.1a11.6,11.6,0,0,1,.4-1.8c.2.2.5.8.8,1.2a5.5,5.5,0,0,1,.9,1.4c.7,1.3.7,1.6,1.1,1.9a2.3,2.3,0,0,0,1,.5l.6.2c.7.2,1.1-.4,2.2-.9s1.9-.5,1.9-.9-.4-.4-.7-1A2.6,2.6,0,0,1,45.4,45.5Z" transform="translate(-6.7)"/><path id="eydlib7ehv149-2" data-name="eydlib7ehv149" class="cls-5" d="M30.1,47.1a2.3,2.3,0,1,1,2.2-2.3A2.1,2.1,0,0,1,30.1,47.1Zm0-4.4a2.1,2.1,0,1,0,2,2.1A1.9,1.9,0,0,0,30.1,42.7Z" transform="translate(-6.7)"/><path id="eydlib7ehv150-2" data-name="eydlib7ehv150" class="cls-6" d="M39,46.9l-.5,3.5a.9.9,0,0,1-.6.7l-.8.3.3-3.5.4-3.2Z" transform="translate(-6.7)"/><path id="eydlib7ehv151-2" data-name="eydlib7ehv151" class="cls-3" d="M25.5,46.4h.1c.2.1.1.4.1.5a9.2,9.2,0,0,0-.1,1.6c0,.7.1.9,0,1s-.5,0-1.3-.9a1.7,1.7,0,0,1-.1-.8,2.9,2.9,0,0,1,.6-1.1C24.9,46.7,25.2,46.4,25.5,46.4Z" transform="translate(-6.7)"/><path id="eydlib7ehv152-2" data-name="eydlib7ehv152" class="cls-5" d="M36.9,51.7v-.2l1-.4a1.1,1.1,0,0,0,.6-.7l.5-3.5h.2l-.5,3.5a1.1,1.1,0,0,1-.7.9Z" transform="translate(-6.7)"/><path id="eydlib7ehv153-2" data-name="eydlib7ehv153" class="cls-7" d="M40.6,49.4h-.2v.2c-.1.1,0,.2.1.2l1.3.7c.1,0,.1.1.1,0a.1.1,0,0,0,.1-.1v-.3c.1-.1,0-.2-.1-.2l-.4-.3v-.4l-.4.2Z" transform="translate(-6.7)"/><path id="eydlib7ehv154-2" data-name="eydlib7ehv154" class="cls-7" d="M21.1,43.5a.1.1,0,0,0-.1.1v1.1h.3a.1.1,0,0,0,.1-.1v-.4l.3-.2-.3-.2v-.4a.1.1,0,0,0-.1-.1Z" transform="translate(-6.7)"/><path id="eydlib7ehv155-2" data-name="eydlib7ehv155" class="cls-8" d="M33.7,43.9h-.5a.2.2,0,0,0-.2.2V46a.2.2,0,0,0,.2.2h.5c.1,0,.1,0,.1-.1h.1V44.1c0-.1,0-.1-.1-.1S33.8,43.9,33.7,43.9Z" transform="translate(-6.7)"/><path id="eydlib7ehv156-2" data-name="eydlib7ehv156" class="cls-8" d="M34.2,44v1.9c0,.1,0,.1.1.2h.5c.1,0,.1-.1.1-.2V44c0-.1,0-.1-.1-.2h-.5C34.2,43.8,34.2,43.9,34.2,44Z" transform="translate(-6.7)"/><path id="eydlib7ehv157-2" data-name="eydlib7ehv157" class="cls-5" d="M41.8,51h-.2l-1.3-.7c-.2-.1-.2-.3-.2-.5v-.2a.4.4,0,0,1,.5-.2l.4.2.5-.3v.6l.4.2c.2.1.2.3.1.5l-.2.3c0,.1,0,.1-.2.2Zm-1.2-1.6h-.2v.2c-.1.1,0,.2.1.2l1.3.7c.1,0,.1.1.1,0a.1.1,0,0,0,.1-.1v-.3c.1-.1,0-.2-.1-.2l-.4-.3v-.4l-.4.2Z" transform="translate(-6.7)"/><path id="eydlib7ehv158-2" data-name="eydlib7ehv158" class="cls-5" d="M21.3,45.1h-.5a.3.3,0,0,1-.1-.2V43.7a.3.3,0,0,1,.3-.3h.2a.3.3,0,0,1,.3.3V44l.4.3-.4.3v.3C21.6,45,21.4,45.1,21.3,45.1Zm-.2-1.6a.1.1,0,0,0-.1.1v1.1h.3a.1.1,0,0,0,.1-.1v-.4l.3-.2-.3-.2v-.4a.1.1,0,0,0-.1-.1Z" transform="translate(-6.7)"/><path id="eydlib7ehv159-2" data-name="eydlib7ehv159" class="cls-5" d="M33.7,46.3h-.5a.4.4,0,0,1-.4-.4V44a.4.4,0,0,1,.4-.4H34a.4.4,0,0,1,.1.3v1.9c0,.1-.1.2-.1.3Zm0-2.4h-.5a.2.2,0,0,0-.2.2V46a.2.2,0,0,0,.2.2h.5c.1,0,.1,0,.1-.1h.1V44.1c0-.1,0-.1-.1-.1S33.8,43.9,33.7,43.9Z" transform="translate(-6.7)"/><path id="eydlib7ehv160-2" data-name="eydlib7ehv160" class="cls-5" d="M34.3,46.2h-.2c-.1,0-.1-.1-.1-.2V44c0-.2.1-.4.3-.4h.4c.1,0,.2,0,.2.1a.4.4,0,0,1,.1.3v1.9c0,.2-.1.4-.3.4ZM34.2,44v1.9c0,.1,0,.1.1.2h.5c.1,0,.1-.1.1-.2V44c0-.1,0-.1-.1-.2h-.5C34.2,43.8,34.2,43.9,34.2,44Z" transform="translate(-6.7)"/><path id="eydlib7ehv161-2" data-name="eydlib7ehv161" class="cls-5" d="M26.5,61.3a4.6,4.6,0,0,1-.8-2.6l-.4-6.2h.2l.4,6.2a4.5,4.5,0,0,0,.8,2.5Z" transform="translate(-6.7)"/><path id="eydlib7ehv162-2" data-name="eydlib7ehv162" class="cls-5" d="M29.7,66.6H27.2l-.2-.4L26.3,61h.2l.7,5,.2.2h2.3v-.2l.2-4.3h.2L30,66.2Z" transform="translate(-6.7)"/><path id="eydlib7ehv163-2" data-name="eydlib7ehv163" class="cls-5" d="M33.7,61.5h-.5a21.6,21.6,0,0,0-2.8-5.5h.2a19.7,19.7,0,0,1,2.8,5.5h.4Z" transform="translate(-6.7)"/><path id="eydlib7ehv164-2" data-name="eydlib7ehv164" class="cls-5" d="M34.2,67.4a28.3,28.3,0,0,0-1-6h.2a28.3,28.3,0,0,1,1,6Z" transform="translate(-6.7)"/><path id="eydlib7ehv165-2" data-name="eydlib7ehv165" class="cls-5" d="M37.3,67.3h-.2l.3-.4a42.9,42.9,0,0,0-.3-6h.2a46.4,46.4,0,0,1,.3,6.1h0Z" transform="translate(-6.7)"/><path id="eydlib7ehv166-2" data-name="eydlib7ehv166" class="cls-5" d="M37.2,61l-.2-.2.4-.4a59.4,59.4,0,0,0-.7-6.6h.2a63.4,63.4,0,0,1,.7,6.7h0Z" transform="translate(-6.7)"/><path id="eydlib7ehv167-2" data-name="eydlib7ehv167" class="cls-5" d="M25.6,46.3v4.3h.2V46.3Z" transform="translate(-6.7)"/><path id="eydlib7ehv168-2" data-name="eydlib7ehv168" class="cls-5" d="M37.1,48.9l-.3,3.2H37l.3-3.2Z" transform="translate(-6.7)"/><path id="eydlib7ehv169-2" data-name="eydlib7ehv169" class="cls-5" d="M40.4,49.5,37.8,45h0l-.5,3h-.2l.4-3a.2.2,0,0,1,.2-.2c.1,0,.2,0,.2.1l2.6,4.5Z" transform="translate(-6.7)"/><path id="eydlib7ehv170-2" data-name="eydlib7ehv170" class="cls-5" d="M31,41.4a4.9,4.9,0,0,1-4.6-2.6c0-.1-1.3-7.2,2.9-8.2a5.7,5.7,0,0,1,6.1,2.1h-.2a5.6,5.6,0,0,0-6-2.1c-4,.9-2.7,7.9-2.7,7.9s1.6,3.8,7.4,1.9a5.4,5.4,0,0,0,2.5-2v-.8h.2v.9h0A7,7,0,0,1,34,40.7,7.2,7.2,0,0,1,31,41.4Z" transform="translate(-6.7)"/><path id="eydlib7ehv171-2" data-name="eydlib7ehv171" class="cls-5" d="M31.3,40.3c-1,0-1.1-.6-1.4-2.2a4.3,4.3,0,0,0-.1-.5,2.9,2.9,0,0,1,.2-2.2.6.6,0,0,1,.5-.3h.1c3.8,0,5-1.6,5-1.6h.2a.8.8,0,0,1,.8.5c1.1,2.7.4,3.6.4,3.7-1.2,2-3.4,2.3-4.9,2.6h-.8Zm-.8-5.1a.4.4,0,0,0-.3.2c-.2.2-.4.8-.2,2a1.1,1.1,0,0,1,.1.5c.3,1.9.4,2.2,1.8,2H32c1.5-.2,3.6-.5,4.8-2.5,0,0,.7-.9-.4-3.5a.8.8,0,0,0-.6-.4h-.1c-.2.4-1.5,1.7-5.2,1.7Z" transform="translate(-6.7)"/><path id="eydlib7ehv172-2" data-name="eydlib7ehv172" class="cls-5" d="M30.8,40.9c-1.1,0-1.5-1.1-1.8-3.8s-.1-1.9.2-2.2.8-.4,1.7-.5h.9a6.2,6.2,0,0,0,3.5-1.4h.2c.2.1.3.1.3.2s-.1.5-.1.5h-.2c0-.1.1-.2.1-.3a.1.1,0,0,0-.1-.1,6.2,6.2,0,0,1-3.6,1.5H31c-.8.1-1.4.1-1.6.4a3.1,3.1,0,0,0-.1,2.1c.3,2.9.7,3.7,1.6,3.7h0a7.2,7.2,0,0,0,5.7-2.3h.1a7.5,7.5,0,0,1-5.9,2.3Z" transform="translate(-6.7)"/><path id="eydlib7ehv173-2" data-name="eydlib7ehv173" class="cls-6" d="M37.8,39.1h-.2a7.8,7.8,0,0,0-2.7,5.5,5,5,0,0,0,1.9,4.2.2.2,0,0,0,.3,0v-.6L37,48c-.8-.5-1.1-2.7-1.2-2.8a6.1,6.1,0,0,1,2.6-5.4c.1-.1.1-.1.1-.2a.3.3,0,0,0-.1-.2l-.6-.2C37.9,39.1,37.9,39.1,37.8,39.1Z" transform="translate(-6.7)"/><path id="eydlib7ehv174-2" data-name="eydlib7ehv174" class="cls-5" d="M37.1,49.1h-.3a5,5,0,0,1-2-4.4A8.1,8.1,0,0,1,37.5,39c.2-.2.4-.2.5-.1l.6.2c.2.1.2.2.2.4a.5.5,0,0,1-.2.4,5.9,5.9,0,0,0-2.5,5.2s.3,2.2,1.1,2.7a.5.5,0,0,1,.3.4v.4a.5.5,0,0,1-.2.4Zm.7-10h-.2a7.8,7.8,0,0,0-2.7,5.5,5,5,0,0,0,1.9,4.2.2.2,0,0,0,.3,0v-.6L37,48c-.8-.5-1.1-2.7-1.2-2.8a6.1,6.1,0,0,1,2.6-5.4c.1-.1.1-.1.1-.2a.3.3,0,0,0-.1-.2l-.6-.2C37.9,39.1,37.9,39.1,37.8,39.1Z" transform="translate(-6.7)"/><path id="eydlib7ehv175-2" data-name="eydlib7ehv175" class="cls-5" d="M42.9,46.5l-3.7-6.3-.5-.4v-.2l.6.4,3.7,6.3Z" transform="translate(-6.7)"/><path id="eydlib7ehv176-2" data-name="eydlib7ehv176" class="cls-5" d="M47.6,48l-1.2.3v.2l1.2-.3Z" transform="translate(-6.7)"/><path id="eydlib7ehv177-2" data-name="eydlib7ehv177" class="cls-5" d="M47.3,46.6h-.1l-.3-.2-.2-.4h.2l.2.4c0,.1.1.1.2.1h.2l.4-.2c.1-.1.1-.1.1-.2v-.2l-.5-.8c-.1-.1-.2-.2-.3-.1l-1.8.8v-.2l1.8-.8c.2-.1.4,0,.6.2l.5.8c.1.1.1.2.1.4s-.1.2-.2.3l-.4.2Z" transform="translate(-6.7)"/><path id="eydlib7ehv178-2" data-name="eydlib7ehv178" class="cls-5" d="M48,48.3a.7.7,0,0,1-.5-.4l-.2-1.4h.2l.2,1.4c0,.1.2.2.3.2l1.3-.2h.2c.1-.1.1-.1.1-.2L49,44.7a.3.3,0,0,0-.1-.2c-.1-.1-.2-.1-.2,0l-1.1.5v-.2l1.1-.5H49c.1.1.2.2.2.3l.6,2.9a.6.6,0,0,1-.1.4l-.3.2-1.4.2Z" transform="translate(-6.7)"/><path id="eydlib7ehv179-2" data-name="eydlib7ehv179" class="cls-5" d="M42.2,50.4v-.2l4.2-1.8a.1.1,0,0,0,.1-.1h-.1a3.5,3.5,0,0,1-1-2.6c0-.1,0-.1-.1-.1h-.1l-2.5,1.2v-.2L45,45.3h.3a.4.4,0,0,1,.1.3,2.8,2.8,0,0,0,.9,2.5.4.4,0,0,1,.1.3.2.2,0,0,1-.2.2Z" transform="translate(-6.7)"/><path id="eydlib7ehv180-2" data-name="eydlib7ehv180" class="cls-6" d="M26.5,38.9h-.2c-.2.3-1.6,2.8-.8,7.2h.2c-.1-.8-.3-4.8,1.3-6.5Z" transform="translate(-6.7)"/><path id="eydlib7ehv181-2" data-name="eydlib7ehv181" class="cls-5" d="M25.9,46.4l-.6-.2h0c-1-4.8.8-7.4.8-7.5h.3v.2h-.2c-.2.3-1.6,2.8-.8,7.2h.2c-.1-.8-.3-4.8,1.3-6.5h.1c-1.7,1.8-1.3,6.5-1.3,6.5v.2Z" transform="translate(-6.7)"/><path id="eydlib7ehv182-2" data-name="eydlib7ehv182" class="cls-5" d="M21.4,43.5h-.2a13.4,13.4,0,0,1,4.5-3.9v.2A12.6,12.6,0,0,0,21.4,43.5Z" transform="translate(-6.7)"/><path id="eydlib7ehv183-2" data-name="eydlib7ehv183" class="cls-5" d="M24.4,48.8l-.2-.2a10.3,10.3,0,0,1-3-3.7h.2a12,12,0,0,0,2.8,3.4,2,2,0,0,1,1.5-2.1v.2a1.8,1.8,0,0,0-1.3,2.2Z" transform="translate(-6.7)"/><path id="eydlib7ehv184-2" data-name="eydlib7ehv184" class="cls-5" d="M23.9,43.7h-.1l1.3,1.4h.1Z" transform="translate(-6.7)"/><path id="eydlib7ehv185-2" data-name="eydlib7ehv185" class="cls-5" d="M25.1,43.8l-.8.4v.2l.8-.4Z" transform="translate(-6.7)"/><path id="eydlib7ehv186-2" data-name="eydlib7ehv186" class="cls-5" d="M24.4,48.5v.2l1.3,1v-.2Z" transform="translate(-6.7)"/><path id="eydlib7ehv187-2" data-name="eydlib7ehv187" class="cls-9" d="M36.9,67.1a1,1,0,0,1,.5.4l.2.3a2.9,2.9,0,0,1,.4,1.6H33.4a.7.7,0,0,1-.1-.5c0-.2.1-.3.1-.5s.1-.4.2-.6l.2-.3.3-.2.3-.2h.2a4.1,4.1,0,0,1,2.3.2Z" transform="translate(-6.7)"/><path id="eydlib7ehv188-2" data-name="eydlib7ehv188" class="cls-3" d="M34.9,67.6l.4.2h.8a.6.6,0,0,0,.5-.6h-.1a.8.8,0,0,0-.8-.1l-.8.2C34.6,67,34.8,67.5,34.9,67.6Z" transform="translate(-6.7)"/><path id="eydlib7ehv189-2" data-name="eydlib7ehv189" class="cls-5" d="M38.3,69.5H33.5a2.7,2.7,0,0,1,.6-2,2.7,2.7,0,0,1,2-.5,2.1,2.1,0,0,1,1.6.6,2.9,2.9,0,0,1,.6,2Zm-4.7-.2H38a2.9,2.9,0,0,0-.6-1.7A1.7,1.7,0,0,0,36,67a2.6,2.6,0,0,0-1.9.5A2.8,2.8,0,0,0,33.6,69.3Z" transform="translate(-6.7)"/><path id="eydlib7ehv190-2" data-name="eydlib7ehv190" class="cls-5" d="M38.1,68.8H33.6V69h4.5Z" transform="translate(-6.7)"/><path id="eydlib7ehv191-2" data-name="eydlib7ehv191" class="cls-5" d="M36.3,67.8H35.1c-.2,0-.3-.1-.4-.3l-.2-.5h.2l.2.5.2.2h1.4l.2-.5h.2l-.2.5A.5.5,0,0,1,36.3,67.8Z" transform="translate(-6.7)"/><path id="eydlib7ehv192-2" data-name="eydlib7ehv192" class="cls-5" d="M29.8,62.3v-.2l.5-.3a9.2,9.2,0,0,1,.8-5h.2a9.3,9.3,0,0,0-.7,5h0Z" transform="translate(-6.7)"/><path id="eydlib7ehv193-2" data-name="eydlib7ehv193" class="cls-5" d="M36.7,38.6v.2l1,.3v-.2Z" transform="translate(-6.7)"/><path id="eydlib7ehv194-2" data-name="eydlib7ehv194" class="cls-5" d="M32.2,44.4v-.2H33v.2Z" transform="translate(-6.7)"/><path id="eydlib7ehv195-2" data-name="eydlib7ehv195" class="cls-5" d="M28.3,44.1a12.3,12.3,0,0,1-2.5-.7v-.2a12.3,12.3,0,0,0,2.5.7Z" transform="translate(-6.7)"/><path id="eydlib7ehv196-2" data-name="eydlib7ehv196" class="cls-5" d="M32.1,45.7v-.2H33v.2Z" transform="translate(-6.7)"/><path id="eydlib7ehv197-2" data-name="eydlib7ehv197" class="cls-5" d="M28.1,45.3a10,10,0,0,1-2.3-.7v-.2a10,10,0,0,0,2.3.7Z" transform="translate(-6.7)"/><path id="eydlib7ehv198-2" data-name="eydlib7ehv198" class="cls-10" d="M37.1,53.8H35.2c-3.1-.1-5.6-.4-5.6-.4-2.3-.3-1.6-.4-2.3-.4a5.4,5.4,0,0,1-1.8-.4l-.3-.2c-.1-.1-.1-.2-.1-.4s-.1-1,0-1.1.1-.2.2-.2.5,0,.9.2l.8.2,2.5.5a22.2,22.2,0,0,0,5.2.5h1.7c.3,0,.6-.1.8.1s.2.4.2.8S37.2,53.7,37.1,53.8Z" transform="translate(-6.7)"/><path id="eydlib7ehv199-2" data-name="eydlib7ehv199" class="cls-7" d="M33.4,51.3h-.3a.4.4,0,0,0-.1.3V54a.4.4,0,0,0,.4.4h1.5a.4.4,0,0,0,.1-.3V51.7a.4.4,0,0,0-.4-.4Z" transform="translate(-6.7)"/><path id="eydlib7ehv1100-2" data-name="eydlib7ehv1100" class="cls-5" d="M34.6,54.7H33.4c-.4,0-.6-.3-.6-.7V51.7a.5.5,0,0,1,.2-.4l.4-.2h1.2c.4,0,.6.3.6.7v2.3a.5.5,0,0,1-.2.4A.4.4,0,0,1,34.6,54.7Zm-1.2-3.4h-.3a.4.4,0,0,0-.1.3V54a.4.4,0,0,0,.4.4h1.5c.2,0,.2-.2.2-.3V51.7a.4.4,0,0,0-.4-.4Z" transform="translate(-6.7)"/><path id="eydlib7ehv1101-2" data-name="eydlib7ehv1101" class="cls-7" d="M27.2,50.4c-.1,0-.1,0-.1.1H27v3c0,.1,0,.1.1.1h.7v-3a.2.2,0,0,0-.2-.2Z" transform="translate(-6.7)"/><path id="eydlib7ehv1102-2" data-name="eydlib7ehv1102" class="cls-5" d="M27.5,53.9h-.6V50.6a.3.3,0,0,1,.1-.2h.6c.2,0,.3.2.3.4v3.2C27.7,53.8,27.6,53.9,27.5,53.9Zm-.3-3.5c-.1,0-.1,0-.1.1H27v3c0,.1,0,.1.1.1h.7v-3a.2.2,0,0,0-.2-.2Z" transform="translate(-6.7)"/><path id="eydlib7ehv1103-2" data-name="eydlib7ehv1103" class="cls-5" d="M26.9,53.1l-1.3-.3A.8.8,0,0,1,25,52V51a.8.8,0,0,1,.2-.4h.4l1.4.4v.3l-1.4-.5h-.2c-.1.1-.1.1-.1.2v1a.7.7,0,0,0,.4.6l1.3.3Z" transform="translate(-6.7)"/><path id="eydlib7ehv1104-2" data-name="eydlib7ehv1104" class="cls-5" d="M32.9,52.1a36.4,36.4,0,0,1-5.2-.7v-.2c1.4.3,3.2.5,5.1.7Z" transform="translate(-6.7)"/><path id="eydlib7ehv1105-2" data-name="eydlib7ehv1105" class="cls-5" d="M36.9,53.9H35v-.2h2.1c.1-.1.1-.1.1-.2v-1c0-.1,0-.1-.1-.2h.1a.4.4,0,0,1,.1.3v1c0,.1-.1.2-.1.3S37.1,53.9,36.9,53.9Z" transform="translate(-6.7)"/><path id="eydlib7ehv1106-2" data-name="eydlib7ehv1106" class="cls-5" d="M32.8,53.8l-5.1-.5v-.2l5.1.5Z" transform="translate(-6.7)"/><path id="eydlib7ehv1107-2" data-name="eydlib7ehv1107" class="cls-5" d="M26.1,50.9h-.2v1.9h.2Z" transform="translate(-6.7)"/><path id="eydlib7ehv1108-2" data-name="eydlib7ehv1108" class="cls-5" d="M28.9,51.5h-.2v1.8h.2Z" transform="translate(-6.7)"/><path id="eydlib7ehv1109-2" data-name="eydlib7ehv1109" class="cls-5" d="M30.6,51.7h-.2v1.8h.2Z" transform="translate(-6.7)"/><path id="eydlib7ehv1110-2" data-name="eydlib7ehv1110" class="cls-5" d="M32.3,51.9h-.2v1.7h.2Z" transform="translate(-6.7)"/><path id="eydlib7ehv1111-2" data-name="eydlib7ehv1111" class="cls-5" d="M36.2,52.1H36v1.7h.2Z" transform="translate(-6.7)"/><path id="eydlib7ehv1112-2" data-name="eydlib7ehv1112" class="cls-9" d="M29.7,66.6a.1.1,0,0,1,.1.1h.1c0,.3-.1.5-.1.8V69H23.7v-.8a3,3,0,0,1,.4-.8l.4-.4c.3-.4.9-.3,1.4-.4h3.8Z" transform="translate(-6.7)"/><path id="eydlib7ehv1113-2" data-name="eydlib7ehv1113" class="cls-3" d="M27.5,66.9l-.4.3H25.4c-.2-.1-.5-.2-.5-.4h0a7.9,7.9,0,0,1,2-.4h.7C27.9,66.5,27.6,66.8,27.5,66.9Z" transform="translate(-6.7)"/><path id="eydlib7ehv1114-2" data-name="eydlib7ehv1114" class="cls-5" d="M30,69.2H23.7a2.2,2.2,0,0,1,.4-1.7,1.6,1.6,0,0,1,1.3-.7l1.9-.3h.5l-2.4.4a1.4,1.4,0,0,0-1.1.7,1.8,1.8,0,0,0-.3,1.5h6V67l-.2-.3H30l.2.3L30,69.2Z" transform="translate(-6.7)"/><path id="eydlib7ehv1115-2" data-name="eydlib7ehv1115" class="cls-5" d="M29.9,68.3H23.8v.2h6.1Z" transform="translate(-6.7)"/><path id="eydlib7ehv1116-2" data-name="eydlib7ehv1116" class="cls-5" d="M25.6,67.5a.9.9,0,0,1-.6-.3l-.3-.3h.2l.3.3c.1.2.3.2.5.2l1.4-.2a.7.7,0,0,0,.5-.4v-.3h.2v.4a.8.8,0,0,1-.7.5l-1.4.2Z" transform="translate(-6.7)"/><path id="eydlib7ehv1117-2" data-name="eydlib7ehv1117" class="cls-5" d="M34.7,61.2l.8-.2h.9l-.8.2Z" transform="translate(-6.7)"/><path id="eydlib7ehv1118-2" data-name="eydlib7ehv1118" class="cls-5" d="M26.7,61c.2-.1.4,0,.6,0l.5.2h-.6Z" transform="translate(-6.7)"/><path id="eydlib7ehv1119-2" data-name="eydlib7ehv1119" class="cls-5" d="M36.9,35.5,36.4,34l-.4-.4h-.5c-1.2,1.6-4.5,1.5-5.1,1.6s-.6,1.7-.6,1.7l.5,3,.5.3h.9l1.6-.3,1.5-.5,1.1-.8.8-.9.2-1.5Zm-.7,1.3c-.3.1-.7-.4-.9-1.1s-.1-1.3.2-1.4.7.4.9,1.1S36.5,36.7,36.2,36.8Z" transform="translate(-6.7)"/></g></g></g><g id="eydlib7ehv114"><path id="eydlib7ehv115" class="cls-11" d="M69.6,46.1l.4.5,1.2-1.5-1.1-2-1.1,2,.5.7Z" transform="translate(-6.7)"/><path id="eydlib7ehv116" class="cls-12" d="M70,46.7l-.4-.6h.1l.4.5,1.2-1.5-1.1-2-1.1,2,.5.7h-.1l-.5-.7h0L70,43l1.2,2.2Z" transform="translate(-6.7)"/><path id="eydlib7ehv117" class="cls-12" d="M70,43.1h0v2.6H70Z" transform="translate(-6.7)"/><path id="eydlib7ehv118" class="cls-12" d="M70,45.6l-1.1-.5h0l1.1.6,1.2-.5h0Z" transform="translate(-6.7)"/><path id="eydlib7ehv119" class="cls-12" d="M70,45.7h0v.9H70Z" transform="translate(-6.7)"/></g><g id="eydlib7ehv114-2" data-name="eydlib7ehv114"><path id="eydlib7ehv115-2" data-name="eydlib7ehv115" class="cls-11" d="M29.7,46.1l.4.5,1.2-1.5-1.1-2-1.1,2,.5.7Z" transform="translate(-6.7)"/><path id="eydlib7ehv116-2" data-name="eydlib7ehv116" class="cls-12" d="M30.1,46.7l-.4-.6h.1l.4.5,1.2-1.5-1.1-2-1.1,2,.5.7h-.1l-.6-.7h0L30.1,43l1.2,2.2Z" transform="translate(-6.7)"/><path id="eydlib7ehv117-2" data-name="eydlib7ehv117" class="cls-12" d="M30.1,43.1h0v2.6h.1Z" transform="translate(-6.7)"/><path id="eydlib7ehv118-2" data-name="eydlib7ehv118" class="cls-12" d="M30.1,45.6,29,45.1h0l1.1.6,1.2-.5h0Z" transform="translate(-6.7)"/><path id="eydlib7ehv119-2" data-name="eydlib7ehv119" class="cls-12" d="M30.1,45.7h0v.9h.1Z" transform="translate(-6.7)"/></g><path class="cls-4" d="M59.9,89.3l1.4-.7h0a.9.9,0,0,1,.3.7.6.6,0,0,1,0,.6,2,2,0,0,1-.8,1.2,2,2,0,0,1-1.5.1A1.8,1.8,0,0,1,58,89a1.6,1.6,0,0,1,.9-1.2c.2-.2.5-.2.8-.3l.9.2-.2.5a1.3,1.3,0,0,0-1.9.9,2.1,2.1,0,0,0,.1,1.1,1.8,1.8,0,0,0,.9.6,1.1,1.1,0,0,0,1-.1c.3-.1.4-.4.5-.6a1.1,1.1,0,0,0,0-.8l-.8.5Z" transform="translate(-6.7)"/><rect class="cls-4" x="63" y="85.6" width="0.6" height="3.72" transform="translate(-41.9 43.3) rotate(-30)"/><polygon class="cls-4" points="58.9 84.6 60.5 87.4 60 87.6 58.5 84.9 57.7 85.3 57.4 84.8 59.4 83.7 59.7 84.2 58.9 84.6"/><path class="cls-4" d="M70,81.7l.4.6a1.4,1.4,0,0,0-1.1.1c-.3.2-.6.5-.6.8a1.4,1.4,0,0,0,.1,1.1,1.8,1.8,0,0,0,.8.7,1.4,1.4,0,0,0,1.1-.2l.4-.3v-.2a.4.4,0,0,0,.1-.3l.4.6a1.9,1.9,0,0,1-.8.7,1.7,1.7,0,0,1-1.4.2,1.8,1.8,0,0,1-1.2-.9,2,2,0,0,1-.2-1.3A1.9,1.9,0,0,1,70,81.7" transform="translate(-6.7)"/><path class="cls-13" d="M72.4,81.5a1.7,1.7,0,0,1-.2-1.4,2.3,2.3,0,0,1,.9-1.2,2.1,2.1,0,0,1,2.7.7,2,2,0,0,1-2.1,2.9,1.9,1.9,0,0,1-1.3-1m.5-.2a1.5,1.5,0,0,0,.9.6,1.3,1.3,0,0,0,1.6-.9,1.4,1.4,0,0,0-1-1.8,1.2,1.2,0,0,0-1,.2,1.1,1.1,0,0,0-.7.8,1.5,1.5,0,0,0,.2,1.1" transform="translate(-6.7)"/><rect class="cls-4" x="77.5" y="77.3" width="0.6" height="3.72" transform="translate(-35.8 49.4) rotate(-30)"/><polygon class="cls-4" points="74.1 79.5 72.1 76.1 75.9 77.2 74.6 75 75.1 74.7 77.1 78.1 73.3 77 74.6 79.3 74.1 79.5"/><polygon class="cls-14" points="38.6 24.6 34.3 32.9 51.5 31.7 55.7 23.5 38.6 24.6"/><path class="cls-15" d="M48.6,26.2h0c.1,0,0,.1,0,.1l-.3.7h-1l-1.6,3h-.8l1.6-3h-.8l.3-.7h.1s0-.1.1,0Z" transform="translate(-6.7)"/><path class="cls-15" d="M54.2,25.8h.1V26l-.9,3.6h-.8l.2-.5H51.6l-.4.5h0a.1.1,0,0,1-.2,0h-.5L53.4,26c0-.1,0-.1.1-.1h.7Zm-2,2.6H53l.3-1.4Z" transform="translate(-6.7)"/><path class="cls-15" d="M55.8,28.7h0V27.6l-1,2h0a.1.1,0,0,1-.2,0h-.5l1.9-3.7h.8v1.7l1.6-1.6a.1.1,0,0,1,.1-.1h.7l-1.9,3.8h-.8l1-2-.9,1h-.9Z" transform="translate(-6.7)"/><g id="Tape"><polygon class="cls-16" points="54.6 25.2 54.4 25.2 54.5 25 54.4 25.1 54.4 24.8 54.3 24.8 54.4 24.6 54.2 24.6 54.3 24.3 54.1 24.3 54.2 24.1 56 22.7 56.2 22.7 56.1 22.9 56.3 22.9 56.2 23.2 56.4 23.2 56.3 23.4 56.5 23.4 56.4 23.7 56.5 23.6 56.4 23.8 54.6 25.2"/><polygon class="cls-17" points="54.6 25.2 54.4 25.2 54.5 25 54.4 25.1 54.4 24.8 54.3 24.8 54.4 24.6 54.2 24.6 54.3 24.3 54.1 24.3 54.2 24.1 56 22.7 56.2 22.7 56.1 22.9 56.3 22.9 56.2 23.2 56.4 23.2 56.3 23.4 56.5 23.4 56.4 23.7 56.5 23.6 56.4 23.8 54.6 25.2"/></g><g id="Tape-2" data-name="Tape"><polygon class="cls-16" points="37.6 23.4 37.6 23.2 37.8 23.3 37.8 23.1 38 23.1 38.1 22.9 38.2 22.9 38.3 22.7 38.4 22.8 38.5 22.5 38.6 22.6 39.4 25.1 39.4 25.3 39.2 25.3 39.1 25.5 39 25.5 38.9 25.7 38.7 25.7 38.6 25.9 38.5 25.8 38.5 26 38.3 26 37.6 23.4"/><polygon class="cls-17" points="37.6 23.4 37.6 23.2 37.8 23.3 37.8 23.1 38 23.1 38.1 22.9 38.2 22.9 38.3 22.7 38.4 22.8 38.5 22.5 38.6 22.6 39.4 25.1 39.4 25.3 39.2 25.3 39.1 25.5 39 25.5 38.9 25.7 38.7 25.7 38.6 25.9 38.5 25.8 38.5 26 38.3 26 37.6 23.4"/></g><polygon class="cls-4" points="43.9 27.8 43.9 28.5 43.2 29.4 43 28.6 43.4 28 43.9 27.8"/><path class="cls-18" d="M50.1,27.3v-.2l.5-.8a.1.1,0,0,1,.1-.1.1.1,0,0,1,0,.2l-.4.8h-.1" transform="translate(-6.7)"/><path class="cls-18" d="M50.2,27.4l-.2-.2h.1l.2.2a.1.1,0,0,1,.1.1h-.2" transform="translate(-6.7)"/><path class="cls-4" d="M50.6,27.8h.5a1.4,1.4,0,0,0-1.8-1,1.8,1.8,0,0,0-.4,3.1,1.5,1.5,0,0,0,.8.3h.2l.3-.4-.4-1.1.6-.8h.2" transform="translate(-6.7)"/><path class="cls-18" d="M48.8,29.9a1.8,1.8,0,0,1-.5-2.4,1.5,1.5,0,0,1,2.2-.8,1.4,1.4,0,0,1,.7,1h.1l-.7.3v-.3h.3a1.2,1.2,0,0,0-1.7-.8,1.7,1.7,0,0,0-.8,2,1.3,1.3,0,0,0,.5.7" transform="translate(-6.7)"/><path class="cls-19" d="M49.9,29.4v-.3a1.3,1.3,0,0,0,.6-1.2v-.2h.2a1.2,1.2,0,0,1-.8,1.6" transform="translate(-6.7)"/><path class="cls-20" d="M49.3,28.1c.1-.2.4-.3.5-.2a.5.5,0,0,1,.2.6c-.1.1-.4.2-.5.1h0a.4.4,0,0,1-.2-.5" transform="translate(-6.7)"/><path class="cls-18" d="M49.8,28.1a.2.2,0,0,0-.3.1c-.1.1,0,.2.1.3s.2,0,.2-.1h0c.1-.2,0-.3,0-.3m-.4.6a.6.6,0,0,1-.2-.7.5.5,0,0,1,.7-.2.6.6,0,0,1,.2.7.6.6,0,0,1-.7.2m1.7-1L50,28" transform="translate(-6.7)"/><line class="cls-21" x1="44.4" y1="27.5" x2="44.4" y2="27.9"/><polyline class="cls-22" points="44.4 27.9 43.3 28.2 43.2 27.9 44.4 27.5"/><polyline class="cls-4" points="42.9 28.6 43.2 29.4 43.4 29.7 43 30.4 42.5 30.1"/><polygon class="cls-18" points="43.2 30.5 42.1 29.9 42.3 29.6 43.1 30.1 43.2 29.8 42.8 28.6 43 28.5 43.5 29.8 43.2 30.5"/><path class="cls-18" d="M49.5,27.3c-.1,0,0-.1,0-.1h0l.6-1.2h.1c.1,0,0,.1,0,.1l-.6,1.2h-.1" transform="translate(-6.7)"/></svg>